<svg width="80" height="80" viewBox="0 0 80 80" fill="none" xmlns="http://www.w3.org/2000/svg">
<g id="Icon">
<g id="Group 229">
<path id="Union" d="M8 29.9995C8 38.8739 13.2545 46.5211 20.8221 49.9995H8C8 62.1498 17.8497 71.9995 30 71.9995C38.8744 71.9995 46.5216 66.745 50 59.1775V71.9995C62.1503 71.9995 72 62.1498 72 49.9995C72 41.1251 66.7455 33.478 59.1779 29.9995H72C72 17.8492 62.1503 7.99951 50 7.99951C41.1256 7.99951 33.4784 13.254 30 20.8216V7.99951C17.8497 7.99951 8 17.8492 8 29.9995Z" fill="#404040"/>
<path id="Ellipse 30" d="M50 39.9998C50 45.5226 45.5228 49.9998 40 49.9998C34.4772 49.9998 30 45.5226 30 39.9998C30 34.4769 34.4772 29.9998 40 29.9998C45.5228 29.9998 50 34.4769 50 39.9998Z" fill="#FFD11A"/>
</g>
</g>
</svg>
