<svg width="144" height="41" viewBox="0 0 144 41" fill="none" xmlns="http://www.w3.org/2000/svg">
<g id="Logo">
<g id="Heading">
<path id="Vector" d="M131.703 13.5908H134.159V17.3596L134.009 19.0283H134.159C134.422 18.5908 134.797 18.2346 135.284 17.9596C135.784 17.6721 136.341 17.5283 136.953 17.5283C138.141 17.5283 139.016 17.8783 139.578 18.5783C140.153 19.2783 140.441 20.2346 140.441 21.4471V27.0158H137.984V21.7471C137.984 21.1096 137.834 20.6283 137.534 20.3033C137.234 19.9658 136.816 19.7971 136.278 19.7971C135.941 19.7971 135.641 19.8721 135.378 20.0221C135.116 20.1596 134.891 20.3533 134.703 20.6033C134.528 20.8533 134.391 21.1471 134.291 21.4846C134.203 21.8096 134.159 22.1596 134.159 22.5346V27.0158H131.703V13.5908Z" fill="white"/>
<path id="Vector_2" d="M130.767 24.6721C130.367 25.4471 129.805 26.0846 129.08 26.5846C128.367 27.0721 127.473 27.3158 126.398 27.3158C125.686 27.3158 125.03 27.1971 124.43 26.9596C123.842 26.7096 123.33 26.3658 122.892 25.9283C122.467 25.4908 122.13 24.9783 121.88 24.3908C121.642 23.7908 121.523 23.1346 121.523 22.4221C121.523 21.7096 121.642 21.0533 121.88 20.4533C122.13 19.8533 122.467 19.3408 122.892 18.9158C123.33 18.4783 123.842 18.1408 124.43 17.9033C125.03 17.6533 125.686 17.5283 126.398 17.5283C127.461 17.5283 128.355 17.7721 129.08 18.2596C129.805 18.7471 130.336 19.3783 130.673 20.1533L128.423 21.0908C128.211 20.6658 127.936 20.3471 127.598 20.1346C127.273 19.9096 126.861 19.7971 126.361 19.7971C126.036 19.7971 125.73 19.8596 125.442 19.9846C125.155 20.1096 124.898 20.2846 124.673 20.5096C124.461 20.7346 124.292 21.0096 124.167 21.3346C124.042 21.6596 123.98 22.0221 123.98 22.4221C123.98 22.8221 124.042 23.1846 124.167 23.5096C124.292 23.8346 124.461 24.1096 124.673 24.3346C124.898 24.5596 125.155 24.7346 125.442 24.8596C125.73 24.9846 126.036 25.0471 126.361 25.0471C126.873 25.0471 127.305 24.9346 127.655 24.7096C128.017 24.4721 128.305 24.1346 128.517 23.6971L130.767 24.6721Z" fill="white"/>
<path id="Vector_3" d="M120.799 24.8033C120.374 25.5533 119.799 26.1596 119.074 26.6221C118.362 27.0846 117.487 27.3158 116.449 27.3158C115.749 27.3158 115.099 27.1971 114.499 26.9596C113.912 26.7096 113.399 26.3658 112.962 25.9283C112.524 25.4908 112.18 24.9783 111.93 24.3908C111.693 23.7908 111.574 23.1346 111.574 22.4221C111.574 21.7596 111.693 21.1346 111.93 20.5471C112.168 19.9471 112.499 19.4283 112.924 18.9908C113.349 18.5408 113.849 18.1846 114.424 17.9221C115.012 17.6596 115.655 17.5283 116.355 17.5283C117.093 17.5283 117.749 17.6533 118.324 17.9033C118.899 18.1408 119.38 18.4783 119.768 18.9158C120.155 19.3408 120.449 19.8471 120.649 20.4346C120.849 21.0221 120.949 21.6596 120.949 22.3471C120.949 22.4346 120.949 22.5096 120.949 22.5721C120.937 22.6471 120.93 22.7158 120.93 22.7783C120.918 22.8408 120.912 22.9096 120.912 22.9846H113.993C114.043 23.3596 114.143 23.6846 114.293 23.9596C114.455 24.2221 114.649 24.4471 114.874 24.6346C115.112 24.8096 115.368 24.9408 115.643 25.0283C115.918 25.1033 116.199 25.1408 116.487 25.1408C117.049 25.1408 117.512 25.0158 117.874 24.7658C118.249 24.5033 118.543 24.1783 118.755 23.7908L120.799 24.8033ZM118.568 21.2408C118.555 21.0783 118.499 20.8971 118.399 20.6971C118.312 20.4971 118.174 20.3096 117.987 20.1346C117.812 19.9596 117.587 19.8158 117.312 19.7033C117.049 19.5908 116.73 19.5346 116.355 19.5346C115.83 19.5346 115.368 19.6846 114.968 19.9846C114.568 20.2846 114.287 20.7033 114.124 21.2408H118.568Z" fill="white"/>
<path id="Vector_4" d="M106.383 27.0158V15.9908H102.633V13.5908H112.664V15.9908H108.914V27.0158H106.383Z" fill="white"/>
<path id="Vector_5" d="M102.077 24.8033C101.652 25.5533 101.077 26.1596 100.352 26.6221C99.6391 27.0846 98.7641 27.3158 97.7266 27.3158C97.0266 27.3158 96.3766 27.1971 95.7766 26.9596C95.1891 26.7096 94.6766 26.3658 94.2391 25.9283C93.8016 25.4908 93.4578 24.9783 93.2078 24.3908C92.9703 23.7908 92.8516 23.1346 92.8516 22.4221C92.8516 21.7596 92.9703 21.1346 93.2078 20.5471C93.4453 19.9471 93.7766 19.4283 94.2016 18.9908C94.6266 18.5408 95.1266 18.1846 95.7016 17.9221C96.2891 17.6596 96.9328 17.5283 97.6328 17.5283C98.3703 17.5283 99.0266 17.6533 99.6016 17.9033C100.177 18.1408 100.658 18.4783 101.045 18.9158C101.433 19.3408 101.727 19.8471 101.927 20.4346C102.127 21.0221 102.227 21.6596 102.227 22.3471C102.227 22.4346 102.227 22.5096 102.227 22.5721C102.214 22.6471 102.208 22.7158 102.208 22.7783C102.195 22.8408 102.189 22.9096 102.189 22.9846H95.2703C95.3203 23.3596 95.4203 23.6846 95.5703 23.9596C95.7328 24.2221 95.9266 24.4471 96.1516 24.6346C96.3891 24.8096 96.6453 24.9408 96.9203 25.0283C97.1953 25.1033 97.4766 25.1408 97.7641 25.1408C98.3266 25.1408 98.7891 25.0158 99.1516 24.7658C99.5266 24.5033 99.8203 24.1783 100.033 23.7908L102.077 24.8033ZM99.8453 21.2408C99.8328 21.0783 99.7766 20.8971 99.6766 20.6971C99.5891 20.4971 99.4516 20.3096 99.2641 20.1346C99.0891 19.9596 98.8641 19.8158 98.5891 19.7033C98.3266 19.5908 98.0078 19.5346 97.6328 19.5346C97.1078 19.5346 96.6453 19.6846 96.2453 19.9846C95.8453 20.2846 95.5641 20.7033 95.4016 21.2408H99.8453Z" fill="white"/>
<path id="Vector_6" d="M86.8711 17.8284H89.1773V19.1034H89.3273C89.4398 18.8784 89.5898 18.6722 89.7773 18.4847C89.9648 18.2972 90.1711 18.1347 90.3961 17.9972C90.6336 17.8597 90.8836 17.7534 91.1461 17.6784C91.4211 17.6034 91.6898 17.5659 91.9523 17.5659C92.2773 17.5659 92.5523 17.5972 92.7773 17.6597C93.0148 17.7222 93.2148 17.8034 93.3773 17.9034L92.7211 20.1347C92.5711 20.0597 92.4023 20.0034 92.2148 19.9659C92.0398 19.9159 91.8211 19.8909 91.5586 19.8909C91.2211 19.8909 90.9148 19.9597 90.6398 20.0972C90.3648 20.2222 90.1273 20.4034 89.9273 20.6409C89.7398 20.8784 89.5898 21.1597 89.4773 21.4847C89.3773 21.7972 89.3273 22.1409 89.3273 22.5159V27.0159H86.8711V17.8284Z" fill="white"/>
<path id="Vector_7" d="M83.023 25.8156H82.873C82.5855 26.2781 82.198 26.6469 81.7105 26.9219C81.223 27.1844 80.6668 27.3156 80.0418 27.3156C78.8793 27.3156 78.0105 26.9594 77.4355 26.2469C76.873 25.5344 76.5918 24.5844 76.5918 23.3969V17.8281H79.048V23.0969C79.048 23.7594 79.1918 24.2531 79.4793 24.5781C79.7793 24.8906 80.2105 25.0469 80.773 25.0469C81.1105 25.0469 81.4043 24.9781 81.6543 24.8406C81.9168 24.6906 82.1355 24.4969 82.3105 24.2594C82.498 24.0094 82.6355 23.7219 82.723 23.3969C82.823 23.0594 82.873 22.7031 82.873 22.3281V17.8281H85.3293V27.0156H83.023V25.8156Z" fill="white"/>
<path id="Vector_8" d="M70.716 19.9281H69.1035V17.8281H70.716V15.0156H73.1723V17.8281H75.4223V19.9281H73.1723V23.4906C73.1723 23.7031 73.191 23.9031 73.2285 24.0906C73.2785 24.2656 73.366 24.4156 73.491 24.5406C73.666 24.7406 73.916 24.8406 74.241 24.8406C74.4535 24.8406 74.6223 24.8219 74.7473 24.7844C74.8723 24.7344 74.991 24.6719 75.1035 24.5969L75.7973 26.7531C75.5098 26.8906 75.1973 26.9906 74.8598 27.0531C74.5348 27.1281 74.1723 27.1656 73.7723 27.1656C73.3098 27.1656 72.891 27.0969 72.516 26.9594C72.1535 26.8094 71.8473 26.6094 71.5973 26.3594C71.0098 25.7969 70.716 24.9969 70.716 23.9594V19.9281Z" fill="white"/>
<path id="Vector_9" d="M65.7652 25.8156H65.6152C65.3277 26.2781 64.9402 26.6469 64.4527 26.9219C63.9652 27.1844 63.409 27.3156 62.784 27.3156C61.6215 27.3156 60.7527 26.9594 60.1777 26.2469C59.6152 25.5344 59.334 24.5844 59.334 23.3969V17.8281H61.7902V23.0969C61.7902 23.7594 61.934 24.2531 62.2215 24.5781C62.5215 24.8906 62.9527 25.0469 63.5152 25.0469C63.8527 25.0469 64.1465 24.9781 64.3965 24.8406C64.659 24.6906 64.8777 24.4969 65.0527 24.2594C65.2402 24.0094 65.3777 23.7219 65.4652 23.3969C65.5652 23.0594 65.6152 22.7031 65.6152 22.3281V17.8281H68.0715V27.0156H65.7652V25.8156Z" fill="white"/>
<path id="Vector_10" d="M50.1816 13.5908H58.6941V15.9908H52.7129V19.2533H58.0941V21.6533H52.7129V27.0158H50.1816V13.5908Z" fill="white"/>
</g>
<g id="Group">
<g id="Group_2">
<g id="Group_3">
<path id="Vector_11" d="M26.668 40.4998V33.8332C30.3569 33.8332 33.3346 30.8554 33.3346 27.1665H40.0013C40.0013 34.5443 34.0235 40.4998 26.668 40.4998Z" fill="#FFD11A"/>
</g>
<g id="Group_4">
<path id="Vector_12" d="M26.6673 40.4998V33.8332C22.9784 33.8332 20.0007 30.8554 20.0007 27.1665H13.334C13.334 34.5443 19.3118 40.4998 26.6673 40.4998Z" fill="#FFD11A"/>
</g>
</g>
<g id="Group_5">
<g id="Group_6">
<path id="Vector_13" d="M0 27.167H6.66667C6.66667 30.8559 9.64444 33.8337 13.3333 33.8337V40.5003C5.97778 40.5003 0 34.5448 0 27.167Z" fill="#FFD11A"/>
</g>
<g id="Group_7">
<path id="Vector_14" d="M0 27.1668H6.66667C6.66667 23.4779 9.64444 20.5002 13.3333 20.5002V13.8335C5.97778 13.8335 0 19.8113 0 27.1668Z" fill="#FFD11A"/>
</g>
</g>
<g id="Group_8">
<g id="Group_9">
<path id="Vector_15" d="M13.3333 0.5V7.16667C9.64444 7.16667 6.66667 10.1444 6.66667 13.8333H0C0 6.47778 5.97778 0.5 13.3333 0.5Z" fill="#FFD11A"/>
</g>
<g id="Group_10">
<path id="Vector_16" d="M13.334 0.5V7.16667C17.0229 7.16667 20.0007 10.1444 20.0007 13.8333H26.6673C26.6673 6.47778 20.6895 0.5 13.334 0.5Z" fill="#FFD11A"/>
</g>
</g>
<g id="Group_11">
<g id="Group_12">
<path id="Vector_17" d="M39.9993 13.8333H33.3327C33.3327 10.1444 30.3549 7.16667 26.666 7.16667V0.5C34.0216 0.5 39.9993 6.47778 39.9993 13.8333Z" fill="#FFD11A"/>
</g>
<g id="Group_13">
<path id="Vector_18" d="M39.9993 13.8335H33.3327C33.3327 17.5224 30.3549 20.5002 26.666 20.5002V27.1668C34.0216 27.1668 39.9993 21.2113 39.9993 13.8335Z" fill="#FFD11A"/>
</g>
</g>
</g>
</g>
</svg>
