<svg width="50" height="50" viewBox="0 0 50 50" fill="none" xmlns="http://www.w3.org/2000/svg">
<g id="Icon">
<path id="Vector" d="M28.9266 34.4167H21.1211V50.0001H28.9266V34.4167Z" fill="#FFD11A"/>
<path id="Vector_2" d="M28.9266 0H21.1211V15.5833H28.9266V0Z" fill="#FFD11A"/>
<path id="Vector_3" d="M34.4102 21.0946V28.9001H49.9935V21.0946H34.4102Z" fill="#FFD11A"/>
<path id="Vector_4" d="M0 21.1017L0 28.9072H15.5833V21.1017H0Z" fill="#FFD11A"/>
<path id="Vector_5" d="M34.4236 28.8769L28.9043 34.3962L39.9233 45.4152L45.4426 39.8959L34.4236 28.8769Z" fill="#404040"/>
<path id="Vector_6" d="M10.0916 4.54564L4.57227 10.0649L15.5912 21.0839L21.1106 15.5646L10.0916 4.54564Z" fill="#404040"/>
<path id="Vector_7" d="M28.8869 15.5886L34.4062 21.1079L45.4252 10.0889L39.9059 4.56961L28.8869 15.5886Z" fill="#404040"/>
<path id="Vector_8" d="M4.55687 39.9197L10.0762 45.439L21.0951 34.42L15.5758 28.9007L4.55687 39.9197Z" fill="#404040"/>
</g>
</svg>
